{
  "accessors": [
    {
      "bufferView": 2,
      "componentType": 5126,
      "count": 8267,
      "max": [
        110.57439422607422,
        7.096759796142578,
        69.86023712158203
      ],
      "min": [
        -110.57440185546875,
        -0.0002818107604980469,
        -76.38363647460938
      ],
      "type": "VEC3"
    },
    {
      "bufferView": 2,
      "byteOffset": 99204,
      "componentType": 5126,
      "count": 8267,
      "max": [
        1.0,
        1.0,
        1.0
      ],
      "min": [
        -1.0,
        -1.0,
        -1.0
      ],
      "type": "VEC3"
    },
    {
      "bufferView": 1,
      "componentType": 5126,
      "count": 8267,
      "max": [
        0.9936696887016296,
        0.9981542825698853
      ],
      "min": [
        0.009037233889102936,
        0.024381175637245178
      ],
      "type": "VEC2"
    },
    {
      "bufferView": 0,
      "componentType": 5125,
      "count": 24492,
      "type": "SCALAR"
    },
    {
      "bufferView": 2,
      "byteOffset": 198408,
      "componentType": 5126,
      "count": 234,
      "max": [
        110.5744400024414,
        149.55462646484375,
        -71.96155548095703
      ],
      "min": [
        -110.57440948486328,
        3.3106861114501953,
        -79.2715072631836
      ],
      "type": "VEC3"
    },
    {
      "bufferView": 2,
      "byteOffset": 201216,
      "componentType": 5126,
      "count": 234,
      "max": [
        1.0,
        1.0,
        1.0
      ],
      "min": [
        -1.0,
        -1.0,
        -1.0
      ],
      "type": "VEC3"
    },
    {
      "bufferView": 1,
      "byteOffset": 66136,
      "componentType": 5126,
      "count": 234,
      "max": [
        0.9825372695922852,
        0.9950575828552246
      ],
      "min": [
        0.012971997261047363,
        0.006867029704153538
      ],
      "type": "VEC2"
    },
    {
      "bufferView": 0,
      "byteOffset": 97968,
      "componentType": 5125,
      "count": 474,
      "type": "SCALAR"
    }
  ],
  "asset": {
    "extras": {
      "author": "pradeep Thaliyal (https://sketchfab.com/pradeep1)",
      "license": "SKETCHFAB Editorial (https://sketchfab.com/licenses)",
      "source": "https://sketchfab.com/3d-models/macbook-pro-e9001a4b70f94e0d9a2bef2be547f60e",
      "title": "Macbook_pro"
    },
    "generator": "Sketchfab-15.33.0",
    "version": "2.0"
  },
  "bufferViews": [
    {
      "buffer": 0,
      "byteLength": 99864,
      "name": "floatBufferViews",
      "target": 34963
    },
    {
      "buffer": 0,
      "byteLength": 68008,
      "byteOffset": 99864,
      "byteStride": 8,
      "name": "floatBufferViews",
      "target": 34962
    },
    {
      "buffer": 0,
      "byteLength": 204024,
      "byteOffset": 167872,
      "byteStride": 12,
      "name": "floatBufferViews",
      "target": 34962
    }
  ],
  "buffers": [
    {
      "byteLength": 371896,
      "uri": "scene.bin"
    }
  ],
  "extensionsUsed": [
    "KHR_materials_specular"
  ],
  "images": [
    {
      "uri": "textures/FRAME_mat_baseColor.png"
    },
    {
      "uri": "textures/FRAME_mat_metallicRoughness.png"
    },
    {
      "uri": "textures/screen_mat_baseColor.png"
    },
    {
      "uri": "textures/screen_mat_metallicRoughness.png"
    }
  ],
  "materials": [
    {
      "doubleSided": true,
      "extensions": {
        "KHR_materials_specular": {
          "specularColorFactor": [
            1.0,
            1.0,
            1.0
          ],
          "specularFactor": 0.11428606258609549
        }
      },
      "name": "FRAME_mat",
      "occlusionTexture": {
        "index": 1
      },
      "pbrMetallicRoughness": {
        "baseColorTexture": {
          "index": 0
        },
        "metallicRoughnessTexture": {
          "index": 1
        },
        "roughnessFactor": 0.5748558471797247
      }
    },
    {
      "doubleSided": true,
      "extensions": {
        "KHR_materials_specular": {
          "specularColorFactor": [
            1.0,
            1.0,
            1.0
          ],
          "specularFactor": 0.0
        }
      },
      "name": "screen_mat",
      "occlusionTexture": {
        "index": 3
      },
      "pbrMetallicRoughness": {
        "baseColorTexture": {
          "index": 2
        },
        "metallicFactor": 0.49828723287537635,
        "metallicRoughnessTexture": {
          "index": 3
        },
        "roughnessFactor": 0.5348587729029269
      }
    }
  ],
  "meshes": [
    {
      "name": "Macbook_Pro_FRAME_mat_0",
      "primitives": [
        {
          "attributes": {
            "NORMAL": 1,
            "POSITION": 0,
            "TEXCOORD_0": 2
          },
          "indices": 3,
          "material": 0,
          "mode": 4
        }
      ]
    },
    {
      "name": "Macbook_Pro_screen_mat_0",
      "primitives": [
        {
          "attributes": {
            "NORMAL": 5,
            "POSITION": 4,
            "TEXCOORD_0": 6
          },
          "indices": 7,
          "material": 1,
          "mode": 4
        }
      ]
    }
  ],
  "nodes": [
    {
      "children": [
        1
      ],
      "matrix": [
        1.0,
        0.0,
        0.0,
        0.0,
        0.0,
        2.220446049250313e-16,
        -1.0,
        0.0,
        0.0,
        1.0,
        2.220446049250313e-16,
        0.0,
        0.0,
        0.0,
        0.0,
        1.0
      ],
      "name": "Sketchfab_model"
    },
    {
      "children": [
        2
      ],
      "matrix": [
        1.0,
        0.0,
        0.0,
        0.0,
        0.0,
        0.0,
        1.0,
        0.0,
        0.0,
        -1.0,
        0.0,
        0.0,
        0.0,
        0.0,
        0.0,
        1.0
      ],
      "name": "9c8184ca87de4284b88877ba1acc3b72.fbx"
    },
    {
      "children": [
        3
      ],
      "name": "RootNode"
    },
    {
      "children": [
        4,
        5
      ],
      "matrix": [
        0.009999999776482582,
        0.0,
        0.0,
        0.0,
        0.0,
        0.009999999776482582,
        0.0,
        0.0,
        0.0,
        0.0,
        0.009999999776482582,
        0.0,
        0.0,
        0.0,
        0.0,
        1.0
      ],
      "name": "Macbook_Pro"
    },
    {
      "mesh": 0,
      "name": "Macbook_Pro_FRAME_mat_0"
    },
    {
      "mesh": 1,
      "name": "Macbook_Pro_screen_mat_0"
    }
  ],
  "samplers": [
    {
      "magFilter": 9729,
      "minFilter": 9987,
      "wrapS": 10497,
      "wrapT": 10497
    }
  ],
  "scene": 0,
  "scenes": [
    {
      "name": "Sketchfab_Scene",
      "nodes": [
        0
      ]
    }
  ],
  "textures": [
    {
      "sampler": 0,
      "source": 0
    },
    {
      "sampler": 0,
      "source": 1
    },
    {
      "sampler": 0,
      "source": 2
    },
    {
      "sampler": 0,
      "source": 3
    }
  ]
}
